<?xml version="1.0" encoding="UTF-8" standalone="no"?>
<svg
   xmlns:dc="http://purl.org/dc/elements/1.1/"
   xmlns:cc="http://creativecommons.org/ns#"
   xmlns:rdf="http://www.w3.org/1999/02/22-rdf-syntax-ns#"
   xmlns:svg="http://www.w3.org/2000/svg"
   xmlns="http://www.w3.org/2000/svg"
   xmlns:sodipodi="http://sodipodi.sourceforge.net/DTD/sodipodi-0.dtd"
   xmlns:inkscape="http://www.inkscape.org/namespaces/inkscape"
   sodipodi:docname="Logo página.svg"
   inkscape:version="1.0 (4035a4fb49, 2020-05-01)"
   id="svg8"
   version="1.1"
   viewBox="0 0 210 297"
   height="297mm"
   width="210mm">
  <defs
     id="defs2" />
  <sodipodi:namedview
     inkscape:window-maximized="1"
     inkscape:window-y="-8"
     inkscape:window-x="-8"
     inkscape:window-height="1017"
     inkscape:window-width="1920"
     showgrid="false"
     inkscape:document-rotation="0"
     inkscape:current-layer="text835"
     inkscape:document-units="mm"
     inkscape:cy="346.88979"
     inkscape:cx="240.75197"
     inkscape:zoom="3.8551137"
     inkscape:pageshadow="2"
     inkscape:pageopacity="0.0"
     borderopacity="1.0"
     bordercolor="#666666"
     pagecolor="#ffffff"
     id="base" />
  <metadata
     id="metadata5">
    <rdf:RDF>
      <cc:Work
         rdf:about="">
        <dc:format>image/svg+xml</dc:format>
        <dc:type
           rdf:resource="http://purl.org/dc/dcmitype/StillImage" />
        <dc:title></dc:title>
      </cc:Work>
    </rdf:RDF>
  </metadata>
  <g
     id="layer1"
     inkscape:groupmode="layer"
     inkscape:label="Capa 1">
    <g
       style="font-weight:bold;font-size:7.7611px;line-height:1.25;font-family:'Berlin Sans FB Demi';-inkscape-font-specification:'Berlin Sans FB Demi, Bold';stroke-width:0.264583"
       id="text835"
       aria-label="Pak@nvío">
      <path
         inkscape:export-ydpi="95"
         inkscape:export-xdpi="95"
         sodipodi:nodetypes="sccscccccccssscsssccccccssssc"
         id="path837"
         style="font-style:italic;font-variant:normal;font-weight:normal;font-stretch:normal;font-size:7.7611px;font-family:'Comic Sans MS';-inkscape-font-specification:'Comic Sans MS Italic';font-variant-ligatures:normal;font-variant-caps:normal;font-variant-numeric:normal;font-variant-east-asian:normal;stroke-width:0.366577"
         d="m 33.887915,83.574618 c -0.056,0.210018 -0.217014,1.134097 -0.483042,2.772237 -0.02101,0.147013 -0.08401,0.269523 -0.189016,0.367532 -0.105009,0.09451 -0.225769,0.141762 -0.362281,0.141762 -0.147013,0 -0.257272,-0.04725 -0.330778,-0.141762 -0.07351,-0.09801 -0.09801,-0.220519 -0.07351,-0.367532 l 0.246771,-1.538381 c 0.09101,-0.570549 0.238021,-1.293361 0.441039,-2.168434 0.0105,-0.04201 0.161012,-0.770069 0.451537,-2.184188 l 0.105007,-0.719311 c 0.12251,-0.843571 0.378032,-1.226854 0.766566,-1.149847 0.227519,-0.0735 0.645805,-0.110258 1.254856,-0.110258 0.637055,0 1.193602,0.208268 1.669643,0.624803 0.47604,0.416536 0.71406,0.901328 0.71406,1.454376 0,0.805067 -0.346529,1.520878 -1.039587,2.147432 -0.689559,0.623053 -1.534881,0.934579 -2.535967,0.934579 -0.105009,0 -0.316777,-0.021 -0.635304,-0.063 z m 0.82957,-4.053346 -0.162763,0.955583 -0.441039,2.094928 0.5723,0.06826 c 0.224019,0.02801 0.549546,-0.0245 0.976583,-0.157514 0.427036,-0.136512 0.775315,-0.376283 1.044838,-0.719313 0.273023,-0.346529 0.409535,-0.701808 0.409535,-1.065839 0,-0.322027 -0.168014,-0.605552 -0.504042,-0.850573 -0.336029,-0.245021 -0.728062,-0.367531 -1.176101,-0.367531 -0.357031,0 -0.596801,0.014 -0.719311,0.04201 z" />
      <path
         inkscape:export-ydpi="95"
         inkscape:export-xdpi="95"
         sodipodi:nodetypes="ssscscsccsccscsscscsscc"
         id="path839"
         style="font-style:italic;font-variant:normal;font-weight:normal;font-stretch:normal;font-size:7.7611px;font-family:'Comic Sans MS';-inkscape-font-specification:'Comic Sans MS Italic';font-variant-ligatures:normal;font-variant-caps:normal;font-variant-numeric:normal;font-variant-east-asian:normal;stroke-width:0.366577"
         d="m 41.485312,86.457114 c -0.756065,0.364032 -1.295111,0.546048 -1.617138,0.546048 -1.309111,0 -1.963667,-0.623054 -1.963667,-1.869161 0,-1.158598 0.365781,-2.096678 1.097343,-2.814239 0.735063,-0.717561 1.540131,-1.076342 2.415206,-1.076342 0.339529,0 0.689559,0.08751 1.05009,0.262522 0.364031,0.171515 0.546046,0.372782 0.546046,0.603802 0,0.143513 -0.04725,0.255522 -0.141762,0.336028 -0.07,0.136512 -0.169762,0.532046 -0.299275,1.186602 -0.126011,0.651055 -0.189017,1.120095 -0.189017,1.40712 0,0.35353 0.09101,0.840071 0.273025,1.459624 l 0.021,0.084 c -0.077,0.325528 -0.271272,0.488292 -0.582799,0.488292 -0.0525,0 -0.150509,-0.07176 -0.294026,-0.215269 -0.143513,-0.140012 -0.248522,-0.273023 -0.315027,-0.399034 z m 0.383283,-4.084848 C 41.648076,82.242755 41.473062,82.178 41.343551,82.178 c -0.58455,0 -1.130597,0.264272 -1.63814,0.792817 -0.504043,0.525045 -0.756065,1.179601 -0.756065,1.963668 0,0.770065 0.332528,1.155098 0.997585,1.155098 0.521545,0 1.011586,-0.192516 1.470125,-0.577548 0.056,-1.466626 0.206513,-2.513216 0.451539,-3.139769 z" />
      <path
         inkscape:export-ydpi="95"
         inkscape:export-xdpi="95"
         sodipodi:nodetypes="cccsssccccsscccccccsssscccscsccc"
         id="path841"
         style="font-style:italic;font-variant:normal;font-weight:normal;font-stretch:normal;font-size:7.7611px;font-family:'Comic Sans MS';-inkscape-font-specification:'Comic Sans MS Italic';font-variant-ligatures:normal;font-variant-caps:normal;font-variant-numeric:normal;font-variant-east-asian:normal;stroke-width:0.366577"
         d="m 46.200216,84.110164 c -0.147013,0.108509 -0.498793,0.334279 -1.055341,0.677309 -0.136511,0.630053 -0.23627,1.160348 -0.299275,1.590884 -0.02801,0.157514 -0.09801,0.285275 -0.210018,0.383283 -0.112009,0.09801 -0.243271,0.147013 -0.393784,0.147013 -0.294025,0 -0.441037,-0.162764 -0.441037,-0.488292 0,-0.136511 0.09276,-0.644055 0.278274,-1.52263 0.136511,-0.570548 0.322027,-1.545381 0.556547,-2.924499 0.23802,-1.379118 0.374532,-2.240192 0.409535,-2.583221 0.03151,-0.315026 0.05951,-0.528544 0.084,-0.640554 0.02451,-0.115509 0.09101,-0.218768 0.199516,-0.309776 0.108509,-0.09101 0.238021,-0.136513 0.388534,-0.136513 0.290525,0 0.435788,0.145263 0.435788,0.435788 l -0.07875,0.666807 c -0.02801,0.287024 -0.05076,0.47604 -0.06825,0.567048 l -0.299275,1.685394 c -0.140012,0.780567 -0.241521,1.391369 -0.304526,1.832407 0.444537,-0.301026 0.964332,-0.70006 1.559383,-1.197103 l 1.344114,-1.191851 c 0.136512,-0.122511 0.273024,-0.183766 0.409535,-0.183766 0.122511,0 0.22752,0.04725 0.315027,0.141762 0.08751,0.09451 0.131261,0.204768 0.131261,0.330779 0,0.09801 -0.028,0.189016 -0.084,0.273023 -0.056,0.08401 -0.29227,0.316777 -0.708809,0.69831 -0.413036,0.378032 -0.834822,0.735062 -1.265359,1.07109 l 0.903077,1.559383 c 0.381533,0.658057 0.5723,1.116596 0.5723,1.375618 0,0.143513 -0.06476,0.274774 -0.194268,0.393783 -0.12601,0.119011 -0.269522,0.178516 -0.430537,0.178516 -0.196016,0 -0.329027,-0.09976 -0.399033,-0.299276 -0.147013,-0.399034 -0.358782,-0.81907 -0.635305,-1.260107 z" />
      <path
         inkscape:export-ydpi="95"
         inkscape:export-xdpi="95"
         sodipodi:nodetypes="czsssssssszssscssszzzzzszsszsssszszsssszscscsszzszzzszzzszcc"
         id="path843"
         style="font-style:italic;font-variant:normal;font-weight:normal;font-stretch:normal;font-size:7.7611px;font-family:'Comic Sans MS';-inkscape-font-specification:'Comic Sans MS Italic';font-variant-ligatures:normal;font-variant-caps:normal;font-variant-numeric:normal;font-variant-east-asian:normal;stroke-width:0.366577"
         d="m 53.321326,86.124858 c -0.720848,-0.274527 -0.962694,-0.705299 -1.086188,-0.946681 -0.123494,-0.241382 -0.248489,-0.520639 -0.392236,-0.88983 -0.166529,-0.427706 -0.221788,-0.922855 -0.221788,-1.099449 0,-0.327598 0.09206,-0.996455 0.334969,-1.516222 0.221668,-0.474322 0.641332,-1.011108 0.982336,-1.263714 0.163771,-0.121317 0.428861,-0.219778 0.712251,-0.295231 0.306685,-0.08165 0.634802,-0.136362 0.879131,-0.163929 0.4701,-0.05304 0.664584,-0.0145 0.989735,0.0453 0.336952,0.06196 0.6059,0.212573 0.805253,0.335774 0.441129,0.27262 0.578363,0.717607 0.613748,1.157111 0.03539,0.439504 -0.08734,0.785771 -0.161329,1.060325 -0.09028,0.334998 -0.662307,0.852675 -0.662307,0.852675 -0.115378,0.115687 -0.492003,0.374072 -1.064004,0.4924 -0.988552,0.2045 -2.596963,0.211013 -2.596963,0.211013 0,0 -0.907382,-0.751823 -0.459582,-0.865645 0.134877,-0.03428 0.654704,0.158154 1.057529,0.153745 0.494406,-0.0054 1.335725,-0.08811 1.52706,-0.125693 0.402182,-0.07899 0.890089,-0.31501 1.106137,-0.468889 0.216048,-0.153879 0.490302,-0.445016 0.507068,-0.751656 0.01677,-0.30664 0.04751,-0.617571 -0.115036,-0.882558 -0.162544,-0.264986 -0.326979,-0.355214 -0.731234,-0.391119 -0.404256,-0.03591 -0.712991,0.03154 -0.978804,0.06215 -0.265813,0.0306 -0.728039,0.174771 -1.042243,0.373416 -0.508887,0.321727 -0.695229,0.837231 -0.758104,1.230699 -0.06287,0.393468 -0.107099,1.449517 0.358874,2.18071 0.504316,0.79136 1.124826,0.842661 1.590314,0.844672 0.523005,0.0023 1.282222,-0.197963 1.749265,-0.342379 0.467043,-0.144415 0.767721,-0.39339 0.956133,-0.601371 0.222964,-0.246122 0.344145,-0.458821 0.440589,-0.655308 0.10228,-0.208376 0.229807,-0.444538 0.312981,-0.738505 0.07402,-0.261618 0.09518,-0.59766 0.132616,-0.832435 0.04898,-0.307142 0.04772,-0.562178 0.03025,-0.945637 -0.01746,-0.383458 -0.05053,-0.482958 -0.207076,-0.766468 -0.164425,-0.297771 -0.209482,-0.380672 -0.446122,-0.617601 -0.236641,-0.23693 -0.439086,-0.359027 -0.645619,-0.492618 -0.288623,-0.186688 -0.60251,-0.281302 -0.943989,-0.358188 -0.353293,-0.07955 -0.73783,-0.137553 -1.258465,-0.102946 -0.489938,0.03257 -1.103521,0.107952 -1.561164,0.39209 -0.498728,0.309647 -0.823574,0.542376 -1.361463,1.240033 -0.537888,0.697658 -0.939265,1.90778 -0.939265,2.996373 0,0.791068 0.210492,1.447493 0.728536,1.993539 0,0 0.442983,0.327497 0.610092,0.687288 0.228458,0.491882 -0.436828,0.714589 -0.436828,0.714589 -0.588049,-0.276523 -1.074591,-0.714061 -1.459624,-1.312612 -0.385033,-0.598551 -0.577549,-1.265357 -0.577549,-2.00042 0,-0.763065 0.180265,-1.566384 0.546046,-2.415206 0.365781,-0.848822 0.946831,-1.583885 1.737899,-2.205189 0.791068,-0.621304 1.725647,-0.934579 2.803739,-0.934579 1.106094,0 1.921689,0.273867 2.494465,0.568973 0.572776,0.295105 1.062343,0.813615 1.335246,1.26503 0.272902,0.451415 0.434281,1.031337 0.458546,1.437026 0.02426,0.405689 -0.04204,0.826428 -0.107271,1.297806 -0.04562,0.329668 -0.143288,0.886043 -0.285745,1.285163 -0.142457,0.399119 -0.292505,0.63511 -0.677969,1.103223 -0.385464,0.468113 -0.898582,0.701149 -1.506742,0.920039 -0.60816,0.21889 -1.354586,0.255076 -1.664246,0.274106 -0.599261,0.03683 -1.118342,-0.08921 -1.45189,-0.193176 -0.333549,-0.103963 2.8e-5,-6e-6 2.8e-5,-6e-6 z" />
      <path
         inkscape:export-ydpi="95"
         inkscape:export-xdpi="95"
         sodipodi:nodetypes="cssccscsccccssscccccsccccccscc"
         id="path845"
         style="font-style:italic;font-variant:normal;font-weight:normal;font-stretch:normal;font-size:7.7611px;font-family:'Comic Sans MS';-inkscape-font-specification:'Comic Sans MS Italic';font-variant-ligatures:normal;font-variant-caps:normal;font-variant-numeric:normal;font-variant-east-asian:normal;stroke-width:0.366577"
         d="m 61.305755,82.283009 c 0.70706,-0.780567 1.373867,-1.170851 2.00042,-1.170851 0.756064,0 1.134096,0.47079 1.134096,1.412371 0,0.227519 -0.01925,0.491792 -0.05776,0.792818 l -0.173265,1.008086 c -0.049,0.266023 -0.0735,0.642305 -0.0735,1.128846 0,0.724562 -0.049,1.179601 -0.147012,1.365117 -0.09451,0.189016 -0.267773,0.283524 -0.519794,0.283524 -0.308027,0 -0.451539,-0.166264 -0.430538,-0.498793 l 0.03151,-1.149848 c 0.007,-0.308027 0.04902,-0.70006 0.12601,-1.1761 0.077,-0.479541 0.140011,-0.803319 0.189017,-0.971333 0.03501,-0.217018 0.05251,-0.402534 0.05251,-0.556548 0,-0.381532 -0.101509,-0.572298 -0.304526,-0.572298 -0.462039,0 -0.93283,0.302776 -1.412371,0.908328 -0.479541,0.605551 -0.771815,1.146347 -0.876824,1.622388 -0.02101,0.08751 -0.04551,0.182015 -0.07351,0.283523 -0.0735,0.241521 -0.117258,0.477792 -0.131261,0.708811 l -0.05251,0.661557 c -0.0175,0.189016 -0.084,0.337779 -0.199515,0.446288 -0.112011,0.108509 -0.250273,0.162763 -0.414787,0.162763 -0.294025,0 -0.441037,-0.136512 -0.441037,-0.409535 l 0.07875,-0.861073 c 0.02101,-0.339529 0.131266,-0.904827 0.330779,-1.695895 0.196016,-0.812069 0.318526,-1.478876 0.367531,-2.00042 l 0.04726,-0.441037 c 0.0175,-0.168015 0.08401,-0.304527 0.199518,-0.409536 0.11551,-0.108509 0.255522,-0.162764 0.420036,-0.162764 0.322027,0 0.462039,0.22577 0.420035,0.677309 z" />
      <path
         inkscape:export-ydpi="95"
         inkscape:export-xdpi="95"
         sodipodi:nodetypes="cscccscsccccssscc"
         id="path847"
         style="font-style:italic;font-variant:normal;font-weight:normal;font-stretch:normal;font-size:7.7611px;font-family:'Comic Sans MS';-inkscape-font-specification:'Comic Sans MS Italic';font-variant-ligatures:normal;font-variant-caps:normal;font-variant-numeric:normal;font-variant-east-asian:normal;stroke-width:0.366577"
         d="m 67.622042,86.457114 c -0.0525,0.322028 -0.234515,0.483042 -0.546046,0.483042 -0.248521,0 -0.409534,-0.150513 -0.483041,-0.451539 l -0.46204,-2.142183 -0.561798,-2.404704 c -0.014,-0.0595 -0.021,-0.138257 -0.021,-0.236271 0,-0.09451 0.06125,-0.206517 0.183766,-0.336029 0.12601,-0.129511 0.276523,-0.194266 0.451538,-0.194266 0.206518,0 0.339529,0.108509 0.399034,0.325527 l 0.750813,3.664814 c 0.392035,-0.619553 0.850574,-1.429873 1.375619,-2.430958 0.374532,-0.749064 0.623053,-1.190102 0.745563,-1.323113 0.126011,-0.136511 0.260772,-0.204767 0.404285,-0.204767 0.136511,0 0.248521,0.0455 0.336028,0.136512 0.08751,0.09101 0.131261,0.196017 0.131261,0.315027 0,0.136512 -0.409535,0.908328 -1.228604,2.315448 z" />
      <path
         inkscape:export-ydpi="95"
         inkscape:export-xdpi="95"
         sodipodi:nodetypes="sccccsscccsscccsssccscs"
         id="path849"
         style="font-style:italic;font-variant:normal;font-weight:normal;font-stretch:normal;font-size:7.7611px;font-family:'Comic Sans MS';-inkscape-font-specification:'Comic Sans MS Italic';font-variant-ligatures:normal;font-variant-caps:normal;font-variant-numeric:normal;font-variant-east-asian:normal;stroke-width:0.366577"
         d="m 71.124091,86.745889 c -0.294025,0 -0.441037,-0.134762 -0.441037,-0.404285 l 0.210018,-1.606636 c 0.049,-0.420036 0.150508,-0.960832 0.304524,-1.622388 0.126011,-0.602052 0.208269,-1.015087 0.246773,-1.239106 0.063,-0.35003 0.264267,-0.525045 0.6038,-0.525045 0.294025,0 0.441038,0.136512 0.441038,0.409535 0,0.09101 -0.08576,0.542547 -0.257272,1.354616 -0.168014,0.738563 -0.271273,1.279359 -0.309776,1.622388 -0.07,0.619553 -0.140011,1.109595 -0.210018,1.470126 -0.06651,0.36053 -0.262523,0.540795 -0.58805,0.540795 z m 0.09975,-6.68382 c 0,-0.129511 0.07351,-0.259022 0.22052,-0.388533 0.178515,-0.150513 0.453288,-0.430537 0.82432,-0.840072 0.157513,-0.178515 0.358781,-0.364031 0.603802,-0.556548 0.245021,-0.196016 0.439287,-0.294024 0.582799,-0.294024 0.105009,0 0.197767,0.04025 0.278274,0.120759 0.08051,0.08051 0.120759,0.176764 0.120759,0.288775 0,0.175015 -0.08751,0.325527 -0.262523,0.451538 -0.311527,0.217018 -0.5863,0.467289 -0.82432,0.750814 -0.521545,0.595051 -0.903077,0.892576 -1.144598,0.892576 -0.108509,0 -0.203017,-0.04025 -0.283523,-0.120759 -0.07701,-0.08051 -0.115509,-0.182015 -0.11551,-0.304526 z" />
      <path
         inkscape:export-ydpi="95"
         inkscape:export-xdpi="95"
         sodipodi:nodetypes="scscsssssscscsssss"
         id="path851"
         style="font-style:italic;font-variant:normal;font-weight:normal;font-stretch:normal;font-size:7.7611px;font-family:'Comic Sans MS';-inkscape-font-specification:'Comic Sans MS Italic';font-variant-ligatures:normal;font-variant-caps:normal;font-variant-numeric:normal;font-variant-east-asian:normal;stroke-width:0.366577"
         d="m 73.329279,84.929234 c 0,-0.927579 0.301026,-1.765901 0.903077,-2.514964 0.602052,-0.752564 1.363367,-1.128846 2.283945,-1.128846 0.525045,0 0.925829,0.183766 1.202352,0.551297 0.280024,0.367531 0.420036,0.855823 0.420036,1.464874 0,0.997585 -0.280023,1.86916 -0.84007,2.614724 -0.560048,0.745563 -1.254857,1.118344 -2.084428,1.118344 -0.570549,0 -1.027338,-0.201267 -1.370368,-0.603801 -0.343029,-0.402535 -0.514544,-0.903077 -0.514544,-1.501628 z m 2.908748,-2.58322 c -0.546046,0 -0.994084,0.271273 -1.344114,0.813819 -0.35003,0.539046 -0.525045,1.083342 -0.525045,1.632889 0,0.364032 0.09451,0.652807 0.283524,0.866324 0.192517,0.210018 0.437538,0.315027 0.735063,0.315027 0.462039,0 0.869824,-0.210018 1.223355,-0.630054 0.35353,-0.420036 0.530295,-1.041339 0.530295,-1.863909 0,-0.756064 -0.290525,-1.134096 -0.871575,-1.134096 z" />
      <text
         id="text856"
         y="52.160156"
         x="40.080963"
         style="font-style:italic;font-variant:normal;font-weight:normal;font-stretch:normal;font-size:7.7611px;line-height:1.25;font-family:'Comic Sans MS';-inkscape-font-specification:'Comic Sans MS, Italic';font-variant-ligatures:normal;font-variant-caps:normal;font-variant-numeric:normal;font-variant-east-asian:normal;stroke-width:0.0700042"
         xml:space="preserve"><tspan
           style="font-style:italic;font-variant:normal;font-weight:normal;font-stretch:normal;font-size:7.7611px;font-family:'Comic Sans MS';-inkscape-font-specification:'Comic Sans MS, Italic';font-variant-ligatures:normal;font-variant-caps:normal;font-variant-numeric:normal;font-variant-east-asian:normal;stroke-width:0.0700042"
           y="52.160156"
           x="40.080963"
           id="tspan854"
           sodipodi:role="line">Pakenvio</tspan></text>
      <ellipse
         inkscape:export-ydpi="95"
         inkscape:export-xdpi="95"
         transform="rotate(24.466774)"
         ry="2.9211404"
         rx="1.8379079"
         cy="67.568504"
         cx="72.804863"
         id="path2938"
         style="opacity:0.999;fill:none;fill-opacity:1;stroke:#000000;stroke-width:0.799685;stroke-miterlimit:4;stroke-dasharray:none;stroke-opacity:1" />
      <ellipse
         inkscape:export-ydpi="95"
         inkscape:export-xdpi="95"
         style="font-weight:bold;font-size:7.7611px;line-height:1.25;font-family:'Berlin Sans FB Demi';-inkscape-font-specification:'Berlin Sans FB Demi, Bold';opacity:0.999;fill:none;fill-opacity:1;stroke:#000000;stroke-width:0.799685;stroke-miterlimit:4;stroke-dasharray:none;stroke-opacity:1"
         id="path2938-2"
         cx="97.861275"
         cy="56.155952"
         rx="1.8379079"
         ry="2.9211404"
         transform="rotate(24.466775)" />
      <path
         inkscape:export-ydpi="95"
         inkscape:export-xdpi="95"
         id="path2955"
         d="m 79.670799,81.581569 c 13.386666,0.0721 13.386666,0.0721 13.386666,0.0721"
         style="fill:none;stroke:#000000;stroke-width:0.461531;stroke-linecap:round;stroke-linejoin:miter;stroke-miterlimit:4;stroke-dasharray:none;stroke-opacity:1" />
      <path
         inkscape:export-ydpi="95"
         inkscape:export-xdpi="95"
         style="font-weight:bold;font-size:7.7611px;line-height:1.25;font-family:'Berlin Sans FB Demi';-inkscape-font-specification:'Berlin Sans FB Demi, Bold';fill:none;stroke:#000000;stroke-width:0.472255;stroke-linecap:round;stroke-linejoin:miter;stroke-miterlimit:4;stroke-dasharray:none;stroke-opacity:1"
         d="m 80.579294,84.129819 c 16.464374,0.06138 16.464374,0.06138 16.464374,0.06138"
         id="path2955-4" />
      <path
         inkscape:export-ydpi="95"
         inkscape:export-xdpi="95"
         style="font-weight:bold;font-size:7.7611px;line-height:1.25;font-family:'Berlin Sans FB Demi';-inkscape-font-specification:'Berlin Sans FB Demi, Bold';fill:none;stroke:#000000;stroke-width:0.461531;stroke-linecap:round;stroke-linejoin:miter;stroke-miterlimit:4;stroke-dasharray:none;stroke-opacity:1"
         d="m 79.510137,86.584286 c 13.386667,0.0721 13.386667,0.0721 13.386667,0.0721"
         id="path2955-0" />
    </g>
  </g>
</svg>
